<?xml version="1.0" encoding="UTF-8" standalone="no"?>
<svg
   version="1.1"
   viewBox="0.00 0.00 676.00 369.00"
   id="svg210"
   sodipodi:docname="QuantumCodeTechnologies_Logo_v2_White.svg"
   inkscape:version="1.4.3 (0d15f750, 2025-12-25)"
   inkscape:export-filename="QuantumCodeTechnologies_Logo_v2_White.png"
   inkscape:export-xdpi="96"
   inkscape:export-ydpi="96"
   xmlns:inkscape="http://www.inkscape.org/namespaces/inkscape"
   xmlns:sodipodi="http://sodipodi.sourceforge.net/DTD/sodipodi-0.dtd"
   xmlns="http://www.w3.org/2000/svg"
   xmlns:svg="http://www.w3.org/2000/svg">
  <defs
     id="defs210">
    <rect
       x="198.2488"
       y="327.3101"
       width="298.03847"
       height="25.723558"
       id="rect1" />
    <inkscape:path-effect
       effect="fillet_chamfer"
       id="path-effect225"
       is_visible="true"
       lpeversion="1"
       nodesatellites_param="F,0,0,1,0,0,0,1 @ F,0,0,1,0,0,0,1 @ F,0,0,1,0,0,0,1 @ F,0,0,1,0,0,0,1 @ F,0,0,1,0,0,0,1 @ F,0,0,1,0,0.083531873,0,1 @ F,0,0,1,0,0.39121102,0,1"
       radius="0"
       unit="px"
       method="auto"
       mode="F"
       chamfer_steps="1"
       flexible="false"
       use_knot_distance="true"
       apply_no_radius="true"
       apply_with_radius="true"
       only_selected="false"
       hide_knots="false" />
    <inkscape:path-effect
       effect="fillet_chamfer"
       id="path-effect224"
       is_visible="true"
       lpeversion="1"
       nodesatellites_param="F,0,0,1,0,0,0,1 @ F,0,0,1,0,0.76606145,0,1 @ F,0,0,1,0,0.7633711,0,1 @ F,0,0,1,0,0,0,1"
       radius="0"
       unit="px"
       method="auto"
       mode="F"
       chamfer_steps="1"
       flexible="false"
       use_knot_distance="true"
       apply_no_radius="true"
       apply_with_radius="true"
       only_selected="false"
       hide_knots="false" />
  </defs>
  <sodipodi:namedview
     id="namedview210"
     pagecolor="#ffffff"
     bordercolor="#000000"
     borderopacity="0.25"
     inkscape:showpageshadow="2"
     inkscape:pageopacity="0.0"
     inkscape:pagecheckerboard="0"
     inkscape:deskcolor="#d1d1d1"
     inkscape:zoom="0.79717186"
     inkscape:cx="344.34231"
     inkscape:cy="227.05267"
     inkscape:window-width="1397"
     inkscape:window-height="575"
     inkscape:window-x="818"
     inkscape:window-y="154"
     inkscape:window-maximized="0"
     inkscape:current-layer="svg210"
     showguides="true">
    <sodipodi:guide
       position="336.42876,152.15562"
       orientation="1,0"
       id="guide1"
       inkscape:locked="false" />
  </sodipodi:namedview>
  <g
     id="g3"
     transform="matrix(1.3190929,0,0,1.3190929,-101.218,-149.79494)">
    <g
       id="g5"
       style="fill:#ccaaff">
      <path
         fill="#695cb8"
         d="m 477.52,280.99 q -15.96,0.38 -16.84,0.37 -6.34,-0.11 -6.93,-6.35 -0.62,-6.48 -0.15,-12.2 0.12,-1.53 1.41,-3.9 c 1.8,-3.29 11.24,-2.43 15.57,-2.29 a 1.25,1.25 0 0 0 1.29,-1.25 V 251 a 2.94,2.93 0 0 1 2.94,-2.93 h 0.97 a 2.33,2.32 0 0 1 2.33,2.32 v 30 a 0.6,0.6 0 0 1 -0.59,0.6 z m -5.7317,-16.8798 a 1.05,1.05 0 0 0 -1.0481,-1.0518 l -9.56,-0.0167 a 1.05,1.05 0 0 0 -1.0518,1.0481 l -0.0167,9.56 a 1.05,1.05 0 0 0 1.0481,1.0518 l 9.56,0.0167 a 1.05,1.05 0 0 0 1.0518,-1.0481 z"
         id="path188"
         style="fill:#ccaaff" />
      <path
         fill="#695cb8"
         d="m 450.0421,274.3476 a 7.04,7.04 0 0 1 -7.089,6.9907 l -11.0597,-0.0772 a 7.04,7.04 0 0 1 -6.9907,-7.089 l 0.0752,-10.7797 a 7.04,7.04 0 0 1 7.089,-6.9907 l 11.0597,0.0772 a 7.04,7.04 0 0 1 6.9907,7.089 z m -6.8172,-9.8479 a 1.49,1.49 0 0 0 -1.4952,-1.4847 l -8.6399,0.0301 a 1.49,1.49 0 0 0 -1.4848,1.4952 l 0.0301,8.62 a 1.49,1.49 0 0 0 1.4952,1.4847 l 8.6399,-0.0301 a 1.49,1.49 0 0 0 1.4848,-1.4952 z"
         id="path195"
         style="fill:#ccaaff" />
      <path
         fill="#695cb8"
         d="m 507.54,271.32 a 0.82,0.82 0 0 1 -0.82,0.78 H 490.2 a 1.04,1.03 0 0 0 -1.04,1.03 v 0.32 a 1.31,1.31 0 0 0 1.31,1.31 h 16.27 a 0.93,0.92 -90 0 1 0.92,0.93 v 4.59 a 1.1,1.1 0 0 1 -1.11,1.1 q -1.72,-0.02 -5.05,-0.13 -8.3,-0.27 -13.78,-0.43 -4.66,-0.14 -5.23,-5.55 -0.17,-1.65 -0.07,-10.9 0.04,-3.99 1.4,-5.34 2.11,-2.09 5.21,-2.32 9.57,-0.69 13.93,0.23 4.69,0.99 4.72,6.01 0.02,4.51 -0.14,8.37 z m -6.3409,-6.8431 a 1.48,1.48 0 0 0 -1.4954,-1.4645 l -9.0995,0.0953 a 1.48,1.48 0 0 0 -1.4644,1.4954 l 0.001,0.1 a 1.48,1.48 0 0 0 1.4954,1.4645 l 9.0995,-0.0953 a 1.48,1.48 0 0 0 1.4644,-1.4954 z"
         id="path196"
         style="fill:#ccaaff" />
      <path
         fill="#695cb8"
         d="m 398.5,260.31 q -0.28,4.49 -0.08,9.09 c 0.17,3.96 1.81,5.45 5.61,5.38 q 11.02,-0.2 16.6,-0.1 a 0.94,0.94 0 0 1 0.93,0.94 v 4.86 a 0.88,0.88 0 0 1 -0.84,0.88 c -5.54,0.23 -11.22,-0.38 -17.6,-0.16 q -5.22,0.19 -7.37,-1.22 -3.79,-2.47 -4,-7.23 -0.13,-2.95 0,-12.7 z"
         id="path197"
         style="fill:#ccaaff" />
    </g>
    <g
       id="g6"
       style="fill:#00ffff">
      <path
         fill="#2e7dc6"
         d="m 219.88,281.26 c -4.18,0.01 -9.11,0.83 -11.51,-3.15 q -1.29,-2.15 -1.08,-8.35 0.14,-4.07 -0.08,-11.85 a 1.44,1.44 0 0 1 1.44,-1.49 h 4.12 a 1.4,1.4 0 0 1 1.4,1.39 l 0.06,15.27 a 1.62,1.61 2.9 0 0 1.46,1.61 q 0.47,0.04 4.17,0.03 3.7,-0.01 4.16,-0.06 a 1.62,1.61 -3.2 0 0 1.45,-1.62 l -0.04,-15.27 a 1.4,1.4 0 0 1 1.39,-1.4 l 4.12,-0.03 a 1.44,1.44 0 0 1 1.45,1.48 q -0.17,7.79 0,11.85 0.25,6.2 -1.03,8.36 c -2.37,4 -7.3,3.21 -11.48,3.23 z"
         id="path190"
         style="fill:#00ffff" />
      <path
         fill="#2e7dc6"
         d="m 326.04,274.73 q 3.68,-0.01 4.14,-0.06 a 1.62,1.61 -3.2 0 0 1.45,-1.61 l -0.04,-15.2 a 1.39,1.39 0 0 1 1.38,-1.4 l 4.11,-0.02 a 1.44,1.43 -89.4 0 1 1.44,1.47 q -0.17,7.75 0,11.8 0.25,6.17 -1.02,8.32 c -2.37,3.98 -7.28,3.2 -11.44,3.21 -4.16,0.01 -9.07,0.83 -11.46,-3.14 q -1.28,-2.14 -1.07,-8.31 0.14,-4.05 -0.08,-11.8 a 1.44,1.43 89 0 1 1.43,-1.48 h 4.11 a 1.39,1.39 0 0 1 1.39,1.38 l 0.06,15.21 a 1.62,1.61 2.9 0 0 1.45,1.6 q 0.47,0.04 4.15,0.03 z"
         id="path192"
         style="fill:#00ffff" />
      <path
         fill="#2e7dc6"
         d="m 289.55,281.34 h -5.43 a 0.51,0.51 0 0 1 -0.51,-0.51 v -16.7 a 1.18,1.18 0 0 0 -1.18,-1.18 h -9.2 a 0.96,0.96 0 0 0 -0.96,0.96 v 16.48 a 1,0.99 -90 0 1 -0.99,1 h -4.82 a 0.97,0.97 0 0 1 -0.97,-0.97 v -22.97 a 0.91,0.9 89 0 1 0.87,-0.91 q 2.31,-0.07 16.68,-0.12 c 5.1,-0.02 7.09,2.75 7.17,7.95 q 0.16,10.34 -0.04,16.37 a 0.62,0.61 0.5 0 1 -0.62,0.6 z"
         id="path194"
         style="fill:#00ffff" />
      <path
         fill="#2e7dc6"
         d="m 260.58,281.05 q -10.25,0.38 -15.82,0.3 -4.02,-0.06 -6.65,-1.96 c -2.1,-1.53 -1.74,-6.99 -1.99,-11.42 q -0.16,-2.84 2.64,-2.79 8.97,0.16 15,0.12 a 0.86,0.86 0 0 0 0.74,-1.29 l -0.19,-0.33 a 1.63,1.62 75 0 0 -1.41,-0.82 h -14.93 a 1.53,1.52 0 0 1 -1.53,-1.52 v -3.69 a 1.28,1.27 0.2 0 1 1.29,-1.27 q 16.92,0.15 17.52,0.25 c 4.54,0.75 6.05,2.58 6.08,7.63 q 0.06,10.96 -0.04,16.07 a 0.73,0.73 0 0 1 -0.71,0.72 z m -5.948,-8.6799 a 1.12,1.12 0 0 0 -1.1161,-1.1239 l -9.2599,-0.0324 a 1.12,1.12 0 0 0 -1.1239,1.1161 l -0.004,1.16 a 1.12,1.12 0 0 0 1.1161,1.1239 l 9.2599,0.0324 a 1.12,1.12 0 0 0 1.1239,-1.1161 z"
         id="path191"
         style="fill:#00ffff" />
      <path
         fill="#2e7dc6"
         d="m 308.91,281.28 c -6.56,-0.1 -14.37,1.05 -14.26,-7.58 q 0.12,-10.25 -0.19,-22.55 a 2.11,2.11 0 0 1 2.11,-2.17 h 2.84 a 2.15,2.15 0 0 1 2.15,2.15 v 4.36 a 0.9,0.89 90 0 0 0.89,0.9 h 6.24 a 1.47,1.47 0 0 1 1.47,1.47 v 3.4 a 1.77,1.77 0 0 1 -1.77,1.77 h -5.86 a 1.04,1.03 0 0 0 -1.04,1.03 v 9 a 1.66,1.66 0 0 0 1.66,1.66 h 5.76 a 1.35,1.35 0 0 1 1.35,1.35 v 3.88 a 1.33,1.33 0 0 1 -1.35,1.33 z"
         id="path189"
         style="fill:#00ffff" />
      <path
         fill="#2e7dc6"
         d="m 364.37,280.45 a 0.86,0.85 -90 0 1 -0.85,0.86 h -5.41 a 0.77,0.77 0 0 1 -0.77,-0.77 V 264 a 1.22,1.21 0 0 0 -1.22,-1.21 h -5.27 a 1.2,1.2 0 0 0 -1.2,1.2 v 16.56 a 0.64,0.64 0 0 1 -0.64,0.64 h -5.24 a 0.85,0.85 0 0 1 -0.85,-0.85 v -22.83 a 1.01,1.01 0 0 1 0.99,-1.01 q 13.22,-0.26 28.59,-0.03 c 4.47,0.06 6.08,2.76 6.21,7.27 q 0.27,9.73 -0.07,16.92 a 0.74,0.73 1.2 0 1 -0.74,0.7 h -5.29 a 0.64,0.64 0 0 1 -0.64,-0.64 v -16.25 a 1.54,1.54 0 0 0 -1.54,-1.54 h -4.87 a 1.19,1.19 0 0 0 -1.19,1.19 z"
         id="path193"
         style="fill:#00ffff" />
      <path
         fill="#2466a4"
         d="m 175.64,263.03 q 0.18,3.7 0.14,7.42 -0.04,2.69 2.23,3.97 a 1.04,1.02 -29.5 0 0 0.52,0.14 h 5.12 a 3.77,3.77 0 0 1 3.26,1.88 l 2.08,3.58 a 1.11,1.11 0 0 1 -1.12,1.66 c -6.04,-0.86 -13.64,1.27 -17.69,-4.56 -2.19,-3.16 -1.56,-10.45 -1.5,-14.77 z"
         id="path198"
         style="fill:#00ffff" />
      <path
         fill="#1774ac"
         d="m 202.96,265.96 q 0.95,6.65 -3.59,10 a 1.64,1.64 0 0 0 -0.1,2.56 q 3.52,3.03 5.45,6.28 a 0.47,0.47 0 0 1 -0.41,0.71 l -6.28,-0.07 a 2.33,1.94 25.2 0 1 -0.32,-0.04 c -2.86,-0.59 -3.69,-3.44 -5.74,-5.08 q -2.54,-2.01 -2.68,-2.28 -1.27,-2.39 -4.78,-5.22 a 1.85,1.84 41.9 0 1 -0.15,-2.74 l 2.37,-2.37 a 1.71,1.7 -44.9 0 1 2.41,0 l 4.09,4.09 a 0.9,0.89 31.9 0 0 1.48,-0.34 q 1.13,-3.4 0.97,-7.53 z"
         id="path199"
         style="fill:#00ffff" />
    </g>
  </g>
  <path
     fill="#4aa7de"
     d="m 166.50509,201.03099 -9.603,-2.67775 c 0.38254,-4.89384 1.12123,-13.49432 -6.48993,-13.34922 q -7.25502,0.13191 -15.20915,0.39572 a 3.8121784,3.8121784 0 0 0 -3.24496,2.0446 q -2.26884,4.353 -1.49058,9.72171 l -9.18088,-0.89698 c -0.67274,-10.14382 1.78077,-19.14004 13.59984,-19.49619 q 3.74623,-0.10553 16.84482,-0.21106 11.09357,-0.0923 14.6815,10.1834 1.06847,3.06029 0.0923,14.28577 z"
     id="path186"
     style="stroke-width:1.31909" />
  <path
     fill="#9c8fdc"
     d="m 424.44051,193.57812 -8.90388,-0.34296 c -1.97864,-12.01694 6.08102,-16.66015 16.50185,-16.60738 q 10.40764,0.0659 20.55147,0.40892 a 2.2820307,2.2556488 88.1 0 1 2.1765,2.05778 l 0.38254,3.87813 a 1.9522574,1.9522574 0 0 1 -1.93907,2.13693 q -1.12123,-0.0132 -22.55649,-0.13191 -6.92523,-0.0528 -6.21292,8.60049 z"
     id="path187"
     style="fill:#a02c89;stroke-width:1.31909" />
  <g
     id="g4"
     style="fill:#f5f5f5;fill-opacity:1"
     transform="matrix(1.3190929,0,0,1.3190929,-101.218,-149.79494)">
    <path
       fill="#1a597a"
       d="m 284.2,291.37 a 0.46,0.46 0 0 1 0.46,-0.46 h 4.07 a 0.69,0.69 0 0 1 0.69,0.69 v 4.97 a 0.91,0.9 -4.8 0 0 1.06,0.89 q 1.31,-0.21 6.71,-0.11 c 3.71,0.07 6.26,1.79 6.49,5.22 q 0.19,2.88 -0.07,13.94 a 0.66,0.66 0 0 1 -0.66,0.65 h -3.86 a 0.79,0.79 0 0 1 -0.79,-0.79 v -13.11 a 0.64,0.63 -90 0 0 -0.63,-0.64 h -7.76 a 0.53,0.53 0 0 0 -0.53,0.53 v 13.09 a 0.94,0.93 0 0 1 -0.94,0.93 h -3.35 a 0.89,0.89 0 0 1 -0.89,-0.89 z"
       id="path200"
       style="fill:#f5f5f5;fill-opacity:1" />
    <path
       fill="#1a597a"
       d="m 361.07,317.17 c -3.53,0.06 -7.48,0.15 -7.79,-4.43 q -0.19,-2.85 -0.36,-20.06 a 1.78,1.77 89.7 0 1 1.77,-1.8 h 2.12 a 1.67,1.66 -90 0 1 1.66,1.67 q -0.02,13.38 -0.11,18.53 -0.02,1.12 2.61,0.86 a 1.35,1.35 0 0 1 1.48,1.34 v 2.5 a 1.4,1.39 -0.4 0 1 -1.38,1.39 z"
       id="path201"
       style="fill:#f5f5f5;fill-opacity:1" />
    <rect
       fill="#1a597a"
       x="-2.6199999"
       y="-2.6099999"
       transform="rotate(2.4,-6800.6377,10019.553)"
       width="5.2399998"
       height="5.2199998"
       rx="0.88"
       id="rect201"
       style="fill:#f5f5f5;fill-opacity:1" />
    <path
       fill="#1a597a"
       d="m 226.13,292.32 q 5.59,-0.03 11.04,0.15 a 1.04,1.04 0 0 1 1.01,1.04 v 3.01 a 1.08,1.07 0 0 1 -1.08,1.07 h -7.29 a 0.82,0.81 90 0 0 -0.81,0.82 v 17.93 a 0.81,0.8 89 0 1 -0.77,0.81 q -0.35,0.01 -2.01,0.02 -1.66,0 -2.01,-0.01 a 0.81,0.8 -89.4 0 1 -0.78,-0.8 l -0.12,-17.93 a 0.82,0.81 89.6 0 0 -0.82,-0.81 l -7.29,0.05 a 1.08,1.07 -0.4 0 1 -1.08,-1.07 l -0.03,-3.01 a 1.04,1.04 0 0 1 1.01,-1.04 q 5.44,-0.22 11.03,-0.23 z"
       id="path202"
       style="fill:#f5f5f5;fill-opacity:1" />
    <path
       fill="#1a597a"
       d="m 257.34,311.92 a 0.95,0.95 0 0 1 0.95,0.95 v 3.17 a 1.02,1.01 89.4 0 1 -0.99,1.02 q -9.81,0.23 -14.01,0.02 -4.34,-0.22 -4.42,-5.14 -0.08,-4.34 0.08,-9.13 c 0.21,-6.49 7.3,-5.2 11.49,-5.43 8.87,-0.47 8.42,5.78 7.73,12.28 a 0.51,0.51 0 0 1 -0.51,0.46 l -12.84,0.01 a 0.74,0.73 0 0 0 -0.74,0.73 v 0.39 a 0.67,0.67 0 0 0 0.67,0.68 z m -4.2397,-7.7565 a 1.45,1.45 0 0 0 -1.4424,-1.4576 l -6.06,-0.0317 a 1.45,1.45 0 0 0 -1.4575,1.4423 l -7e-4,0.12 a 1.45,1.45 0 0 0 1.4424,1.4576 l 6.06,0.0317 a 1.45,1.45 0 0 0 1.4575,-1.4423 z"
       id="path203"
       style="fill:#f5f5f5;fill-opacity:1" />
    <path
       fill="#1a597a"
       d="m 330.19,302.07 a 4.85,4.85 0 0 1 4.96,-4.73 l 8.83,0.21 a 6.22,6.16 1.4 0 1 6.07,6.31 l -0.19,7.6 a 6.22,6.16 1.4 0 1 -6.36,6.01 l -8.83,-0.22 a 4.85,4.85 0 0 1 -4.73,-4.96 z m 14.32,1.8 a 1.19,1.19 0 0 0 -1.19,-1.19 h -6.92 a 1.19,1.19 0 0 0 -1.19,1.19 v 6.92 a 1.19,1.19 0 0 0 1.19,1.19 h 6.92 a 1.19,1.19 0 0 0 1.19,-1.19 z"
       id="path204"
       style="fill:#f5f5f5;fill-opacity:1" />
    <path
       fill="#1a597a"
       d="m 391.34,325.41 a 1.14,1.14 0 0 1 -1.13,-1.14 v -2.97 a 1.24,1.24 0 0 1 1.29,-1.24 q 9.3,0.35 10.16,-0.66 a 1.09,1.09 0 0 0 -0.83,-1.8 q -5.37,0.01 -8.43,-0.24 -4.38,-0.35 -4.83,-4.37 -0.61,-5.34 -0.14,-9.79 0.47,-4.45 4.92,-5.78 a 2.16,2.08 -52.4 0 1 0.61,-0.09 h 8.72 a 2.88,2.61 51.7 0 1 0.89,0.15 q 5,1.63 4.86,6.98 -0.03,1.22 -0.1,14.29 c -0.03,5.04 -3.52,6.91 -8.37,6.74 q -0.99,-0.04 -7.62,-0.08 z m 10.5674,-21.3763 a 1.34,1.34 0 0 0 -1.3329,-1.347 l -6.34,-0.0332 a 1.34,1.34 0 0 0 -1.347,1.3329 l -0.0349,6.6799 a 1.34,1.34 0 0 0 1.3329,1.347 l 6.34,0.0332 a 1.34,1.34 0 0 0 1.347,-1.3329 z"
       id="path206"
       style="fill:#f5f5f5;fill-opacity:1" />
    <path
       fill="#1a597a"
       d="m 384.3426,311.6373 a 5.76,5.76 0 0 1 -5.7701,5.7499 l -8.3199,-0.0145 a 5.76,5.76 0 0 1 -5.75,-5.77 l 0.0148,-8.48 a 5.76,5.76 0 0 1 5.7701,-5.7499 l 8.3199,0.0145 a 5.76,5.76 0 0 1 5.75,5.77 z M 378.66,303.77 a 1.12,1.12 0 0 0 -1.12,-1.12 h -6.22 a 1.12,1.12 0 0 0 -1.12,1.12 v 7.04 a 1.12,1.12 0 0 0 1.12,1.12 h 6.22 a 1.12,1.12 0 0 0 1.12,-1.12 z"
       id="path205"
       style="fill:#f5f5f5;fill-opacity:1" />
    <rect
       fill="#1a597a"
       x="-2.6500001"
       y="-9.8500004"
       transform="rotate(-0.3,58896.653,-78841.771)"
       width="5.3000002"
       height="19.700001"
       rx="1.24"
       id="rect206"
       style="fill:#f5f5f5;fill-opacity:1" />
    <path
       fill="#1a597a"
       d="m 438.41,311.97 a 0.96,0.96 0 0 1 0.96,0.96 v 3.21 a 1.03,1.02 89.4 0 1 -1,1.03 q -9.92,0.22 -14.16,0.01 -4.39,-0.23 -4.47,-5.2 -0.07,-4.39 0.09,-9.23 c 0.22,-6.56 7.38,-5.25 11.62,-5.48 8.97,-0.47 8.51,5.85 7.8,12.42 a 0.52,0.51 -86.9 0 1 -0.51,0.46 h -12.98 a 0.75,0.74 0 0 0 -0.75,0.74 v 0.4 a 0.68,0.68 0 0 0 0.68,0.68 z m -4.2649,-8.3075 a 1.1,1.1 0 0 0 -1.1114,-1.0884 l -6.8796,0.072 a 1.1,1.1 0 0 0 -1.0885,1.1115 l 0.009,0.8799 a 1.1,1.1 0 0 0 1.1114,1.0884 l 6.8796,-0.072 a 1.1,1.1 0 0 0 1.0885,-1.1115 z"
       id="path207"
       style="fill:#f5f5f5;fill-opacity:1" />
    <path
       fill="#1a597a"
       d="m 448.4,302.96 a 0.74,0.74 0 0 0 -0.58,0.95 l 0.08,0.28 a 1.13,1.11 79 0 0 1.14,0.78 q 9.32,-0.64 11.64,1.37 c 1.95,1.7 1.51,5.33 1.31,7.61 a 3.18,3.18 0 0 1 -1.83,2.59 q -1.56,0.71 -4.17,0.7 -7.71,-0.02 -10.25,-0.19 a 3.32,3.32 0 0 1 -3.05,-2.77 l -0.19,-1.13 a 1.78,1.78 0 0 1 2.18,-2.02 q 5.66,1.38 11.75,0.45 a 0.49,0.48 -19.9 0 0 0.35,-0.73 l -0.18,-0.26 a 1.02,1 -17.2 0 0 -0.83,-0.43 h -9.39 a 2,1.97 -26.6 0 1 -1.17,-0.38 c -5.05,-3.68 -3.54,-12.07 3.32,-12.29 q 5.86,-0.18 5.92,-0.19 c 4.21,-0.19 6.62,0.76 7.54,5.07 a 1.27,1.27 0 0 1 -1.24,1.54 h -2.06 a 0.86,0.83 -31.7 0 1 -0.36,-0.08 q -4.29,-1.84 -9.93,-0.87 z"
       id="path208"
       style="fill:#f5f5f5;fill-opacity:1" />
    <path
       fill="#1a597a"
       d="m 267.09,307.38 q 0.02,3.27 0.09,3.88 a 0.83,0.83 0 0 0 0.83,0.75 l 11.91,0.06 a 1.13,1.13 0 0 1 1.13,1.13 v 2.99 a 1.08,1.07 0 0 1 -1.08,1.07 h -13.35 a 3.6,3.59 -35.9 0 1 -1.11,-0.18 c -4.2,-1.39 -3.85,-5.71 -3.87,-9.68 -0.01,-3.97 -0.39,-8.28 3.79,-9.71 a 3.6,3.59 35.5 0 1 1.11,-0.18 l 13.35,-0.1 a 1.08,1.07 -0.4 0 1 1.09,1.06 l 0.03,2.99 a 1.13,1.13 0 0 1 -1.13,1.14 l -11.91,0.15 a 0.83,0.83 0 0 0 -0.82,0.76 q -0.07,0.61 -0.06,3.87 z"
       id="path209"
       style="fill:#f5f5f5;fill-opacity:1" />
    <path
       fill="#1a597a"
       d="m 312.57,316.29 a 0.9,0.9 0 0 1 -0.9,0.9 h -3.53 a 0.88,0.88 0 0 1 -0.88,-0.88 v -18.34 a 0.55,0.55 0 0 1 0.55,-0.55 h 14.55 a 0.88,0.81 -31.2 0 1 0.34,0.07 q 3.8,1.69 3.86,6.76 0.07,5.79 -0.16,12.27 a 0.71,0.7 0.8 0 1 -0.71,0.68 h -3.76 a 0.67,0.67 0 0 1 -0.67,-0.67 v -12.95 a 0.94,0.94 0 0 0 -0.94,-0.94 h -7.02 a 0.73,0.73 0 0 0 -0.73,0.73 z"
       id="path210"
       style="fill:#f5f5f5;fill-opacity:1" />
  </g>
  <g
     id="g2"
     transform="matrix(0.69601181,0,0,0.69601181,107.56134,9.0373431)">
    <path
       fill="#58e2eb"
       d="m 338.89,42.35 q 2.23,3.26 6.43,5.16 a 3.42,3.31 77 0 1 0.74,0.48 q 3.84,3.29 8.05,5.83 a 7.71,7.04 -5.4 0 1 1.18,0.89 q 2.37,2.16 5.72,4.34 l -13.61,0.06 a 1.89,1.88 0.9 0 0 -1.88,1.81 l -0.25,6.31 q -4.88,-1.61 -9.98,-1.85 -12.24,-0.56 -24.68,-3.59 9.13,-6.98 11.75,-8.67 6.02,-3.88 11.89,-7.99 0.82,-0.57 1.17,-1.07 0.71,-1 -0.12,-1.33 2.58,-1.01 3.59,-0.38 z"
       id="path120" />
    <path
       fill="#4aa7de"
       d="m 383.66,56.4 q -2.8,1.28 -4.27,3.74 -2.78,4.65 -5.98,8.67 -2.8,-2.98 -6.07,-4.85 -0.76,-0.43 -1.21,-0.1 -0.47,0.35 -0.49,1.18 l -0.16,-4.19 a 1.68,1.67 -89.2 0 0 -1.56,-1.61 l -2.91,-0.19 q -3.35,-2.18 -5.72,-4.34 a 7.71,7.04 -5.4 0 0 -1.18,-0.89 q -4.21,-2.54 -8.05,-5.83 a 3.42,3.31 77 0 0 -0.74,-0.48 q -4.2,-1.9 -6.43,-5.16 3.6,0.45 6.3,1.23 17.94,5.22 35.83,10.64 1.63,0.5 2.64,2.18 z"
       id="path121" />
    <path
       fill="#95efef"
       d="m 335.3,42.73 q 0.83,0.33 0.12,1.33 -0.35,0.5 -1.17,1.07 -5.87,4.11 -11.89,7.99 -2.62,1.69 -11.75,8.67 -0.77,1.6 -3.15,0.49 l -11.21,-9.95 z"
       id="path122" />
    <path
       fill="#4aa7de"
       d="m 296.25,52.33 11.21,9.95 q 0.79,1.36 1.33,0.88 Q 293,68.4 277.55,74.1 c -3.08,1.13 -6.48,2.85 -9.8,4.12 q -0.91,0.34 -0.54,1.57 l -2.89,0.61 a 0.47,0.46 14.5 0 1 -0.45,-0.76 q 0.95,-1.07 2.14,-2.13 3.78,-3.36 21.72,-18.76 2.33,-2 6.53,-5.48 0.92,-0.77 1.99,-0.94 z"
       id="path123" />
    <path
       fill="#2e7dc6"
       d="m 393.85,80.55 q -5.14,-1.06 -8.49,-3.92 -3.06,-2.61 -10.29,-7.72 -0.84,-0.59 -1.73,0.38 -0.22,-0.72 0.07,-0.48 3.2,-4.02 5.98,-8.67 1.47,-2.46 4.27,-3.74 z"
       id="path124" />
    <path
       fill="#2e7dc6"
       d="m 361.01,59.05 2.91,0.19 a 1.68,1.67 -89.2 0 1 1.56,1.61 l 0.16,4.19 -0.19,11.73 a 1.82,1.82 0 0 1 -1.82,1.79 h -16.28 a 1.88,1.87 -0.5 0 1 -1.88,-1.84 l -0.2,-9.49 0.25,-6.31 a 1.89,1.88 0.9 0 1 1.88,-1.81 z m -14.2908,1.8626 a 8.98,1.06 -177.4 0 0 8.9227,1.4663 8.98,1.06 -177.4 0 0 9.0189,-0.6515 8.98,1.06 -177.4 0 0 -8.9227,-1.4663 8.98,1.06 -177.4 0 0 -9.0189,0.6515 z m 17.6708,3.7987 a 1.12,1.12 0 0 0 -1.1161,-1.1239 L 347.594,63.5327 a 1.12,1.12 0 0 0 -1.1239,1.1161 L 346.43,76.1287 a 1.12,1.12 0 0 0 1.1161,1.1239 l 15.6799,0.0547 a 1.12,1.12 0 0 0 1.1239,-1.1161 z"
       id="path125" />
    <ellipse
       fill="#32cae1"
       cx="0"
       cy="0"
       transform="rotate(-177.4,178.54077,26.624132)"
       rx="8.9799995"
       ry="1.0599999"
       id="ellipse125"
       style="display:inline" />
    <path
       fill="#6cbee9"
       d="m 310.61,61.79 q 12.44,3.03 24.68,3.59 5.1,0.24 9.98,1.85 l 0.2,9.49 a 1.88,1.87 -0.5 0 0 1.88,1.84 h 16.28 a 1.82,1.82 0 0 0 1.82,-1.79 l 0.19,-11.73 q 0.02,-0.83 0.49,-1.18 0.45,-0.33 1.21,0.1 3.27,1.87 6.07,4.85 -0.29,-0.24 -0.07,0.48 l -0.43,1.9 -2.97,14.26 a 2.03,1.11 87.6 0 1 -0.07,0.25 q -1.21,3.43 -2.64,9.24 -0.32,1.28 -1.52,1.18 -7.38,-4.99 -14.44,-10.35 -4.19,-3.18 -5.23,-3.96 -3.23,-2.43 -5.47,-3.45 C 337.3,76.88 334.86,75.22 331,73.5 q -11.23,-5.01 -22.21,-10.34 -0.54,0.48 -1.33,-0.88 2.38,1.11 3.15,-0.49 z"
       id="path126" />
    <path
       fill="#6cbee9"
       d="m 364.3499,76.1912 a 1.12,1.12 0 0 1 -1.1239,1.1161 L 347.5461,77.2526 A 1.12,1.12 0 0 1 346.43,76.1287 l 0.0401,-11.4799 a 1.12,1.12 0 0 1 1.1239,-1.1161 l 15.6799,0.0547 a 1.12,1.12 0 0 1 1.1161,1.1239 z M 347.79,70.12 c -0.18,3.14 3.93,5.46 6.41,3.26 a 0.51,0.51 0 0 0 -0.42,-0.88 l -2.04,0.34 a 1.31,1.27 53.9 0 1 -0.82,-0.14 q -1.49,-0.8 -1.4,-2.48 0.1,-1.68 1.67,-2.31 a 1.31,1.27 -47.5 0 1 0.83,-0.05 l 1.99,0.57 a 0.51,0.51 0 0 0 0.52,-0.83 c -2.22,-2.46 -6.56,-0.62 -6.74,2.52 z m 13.9481,-1.1323 a 1.51,1.01 -79 0 0 -1.2795,1.2896 1.51,1.01 -79 0 0 0.7033,1.675 1.51,1.01 -79 0 0 1.2795,-1.2896 1.51,1.01 -79 0 0 -0.7033,-1.675 z M 356.53,71.62 q 0.56,0.17 1.48,-0.9 a 0.82,0.8 -29.6 0 0 0.19,-0.64 q -0.09,-0.62 -0.92,-0.88 -0.83,-0.25 -1.26,0.2 a 0.82,0.8 64.1 0 0 -0.21,0.64 q 0.15,1.4 0.72,1.58 z"
       id="path127" />
    <path
       fill="#214a9e"
       d="M 308.79,63.16 Q 319.77,68.49 331,73.5 c 3.86,1.72 6.3,3.38 9.57,4.86 q 2.24,1.02 5.47,3.45 1.04,0.78 5.23,3.96 7.06,5.36 14.44,10.35 l 0.54,0.19 9.71,31.09 a 3.76,3.65 36.6 0 1 0.17,1.04 l 0.09,3.68 q -8.07,-10.39 -16.52,-20.42 -5.76,-6.84 -10.23,-10.71 -6.51,-5.63 -11.56,-9.76 c -3.34,-2.74 -5.77,-4.24 -10.02,-5.79 q -11.17,-4.08 -27.16,-10.12 -1.58,-0.6 -7.17,0.32 -6.77,1.11 -13.32,2.33 c -3.55,0.67 -8.68,0.93 -13.03,1.82 q -0.37,-1.23 0.54,-1.57 c 3.32,-1.27 6.72,-2.99 9.8,-4.12 Q 293,68.4 308.79,63.16 Z"
       id="path128" />
    <path
       fill="#58e2eb"
       d="m 424.69,97.34 -12.19,12.68 -2.4,-5.94 a 2.57,2.2 -67.1 0 1 -0.14,-0.44 q -1.52,-6.66 -3.06,-11.03 c -2.81,-7.94 -4.26,-15.25 -7.41,-23.37 q -0.19,-0.48 -0.99,-1.01 l -0.2,-0.19 q -0.35,-1.35 -0.12,-2.29 a 0.59,0.59 0 0 1 1.03,-0.22 z"
       id="path129" />
    <path
       fill="#2466a4"
       d="m 349.52,70.22 q -0.09,1.68 1.4,2.48 a 1.31,1.27 53.9 0 0 0.82,0.14 l 2.04,-0.34 a 0.51,0.51 0 0 1 0.42,0.88 c -2.48,2.2 -6.59,-0.12 -6.41,-3.26 0.18,-3.14 4.52,-4.98 6.74,-2.52 a 0.51,0.51 0 0 1 -0.52,0.83 l -1.99,-0.57 a 1.31,1.27 -47.5 0 0 -0.83,0.05 q -1.57,0.63 -1.67,2.31 z"
       id="path130" />
    <path
       fill="#2466a4"
       d="m 398.5,68.23 -0.01,1.32 q -0.38,-0.54 -0.19,-1.51 z"
       id="path131" />
    <path
       fill="#27a5d1"
       d="m 412.5,110.02 q -0.87,1.43 -2.16,0.7 -7.55,-4.24 -11.06,-5.63 0.38,-6.82 0.27,-11.09 -0.22,-7.86 -1.06,-24.45 l 0.01,-1.32 q 0.8,0.53 0.99,1.01 c 3.15,8.12 4.6,15.43 7.41,23.37 q 1.54,4.37 3.06,11.03 a 2.57,2.2 -67.1 0 0 0.14,0.44 z"
       id="path132" />
    <path
       fill="#2466a4"
       d="m 393.85,80.55 q -0.75,11.8 -2.45,24.4 c -0.54,4.05 -1.65,7.39 -3.6,10.97 q -4.85,8.94 -8.35,16.4 -0.41,0.86 -1.38,1 -1.08,0.15 -1.85,-1.2 l -0.09,-3.68 a 3.76,3.65 36.6 0 0 -0.17,-1.04 l -9.71,-31.09 21.54,12.33 a 0.69,0.69 0 0 0 0.99,-0.85 q -1.09,-2.82 -10.44,-26.62 c -1.4,-3.57 -3.37,-6.77 -5.43,-9.98 l 0.43,-1.9 q 0.89,-0.97 1.73,-0.38 7.23,5.11 10.29,7.72 3.35,2.86 8.49,3.92 z"
       id="path133" />
    <ellipse
       fill="#2466a4"
       cx="0"
       cy="0"
       transform="rotate(-79,223.46847,-184.00196)"
       rx="1.51"
       ry="1.01"
       id="ellipse133" />
    <path
       fill="#2466a4"
       d="m 357.28,69.2 q 0.83,0.26 0.92,0.88 a 0.82,0.8 -29.6 0 1 -0.19,0.64 q -0.92,1.07 -1.48,0.9 -0.57,-0.18 -0.72,-1.58 a 0.82,0.8 64.1 0 1 0.21,-0.64 q 0.43,-0.45 1.26,-0.2 z"
       id="path134" />
    <path
       fill="#2e7dc6"
       d="m 372.91,71.19 c 2.06,3.21 4.03,6.41 5.43,9.98 q 9.35,23.8 10.44,26.62 a 0.69,0.69 0 0 1 -0.99,0.85 l -21.54,-12.33 -0.54,-0.19 q 1.2,0.1 1.52,-1.18 1.43,-5.81 2.64,-9.24 a 2.03,1.11 87.6 0 0 0.07,-0.25 z"
       id="path135" />
    <path
       fill="#95efef"
       d="m 303.32,83.67 q -2.61,7.15 -5.89,13.58 -0.31,0.61 0.28,1.8 c -2.62,1.57 -3.36,3.97 -5.07,6.11 l -22.56,28.11 a 0.74,0.74 0 0 1 -1.25,-0.16 l -7.46,-16.79 0.02,-1.31 a 2.03,1.99 -31.1 0 1 0.23,-0.89 l 2.72,-5.18 q 1.95,-0.91 2.94,-3.04 a 1.35,1.34 -3.4 0 1 0.51,-0.57 q 0.94,-0.58 1.83,0.28 a 0.56,0.55 43.9 0 0 0.78,-0.01 q 0.7,-0.71 1.12,-0.88 a 0.53,0.53 0 0 1 0.72,0.5 v 1.5 a 0.74,0.74 0 0 1 -0.69,0.74 q -1.46,0.09 -1.91,-0.86 a 0.55,0.54 61.9 0 0 -0.77,-0.24 l -0.69,0.39 a 0.73,0.73 0 0 0 -0.29,0.93 q 0.17,0.38 0.5,0.67 0.22,0.18 0.81,0.2 c 3.17,0.1 7.8,0.84 8.36,-1.4 a 0.39,0.39 0 0 1 0.71,-0.1 l 1.21,2.1 a 0.03,0.02 58.3 0 0 0.02,0.01 l 0.25,-0.07 a 0.27,0.26 75.2 0 0 0.18,-0.32 q -0.76,-3.17 -3.7,-4.54 -3.42,-1.61 -8.81,0.41 l 11.07,-21.37 q 11.06,-1.24 24.83,0.4 z m -38.35,26.69 0.39,2.39 a 0.91,0.91 0 0 0 1.05,0.75 l 2.16,-0.35 a 0.38,0.37 80.7 0 0 0.3,-0.43 l -0.35,-2.15 a 0.48,0.47 -15.6 0 0 -0.64,-0.36 q -0.45,0.17 -0.87,0.51 a 0.59,0.59 0 0 1 -0.9,-0.18 q -0.14,-0.27 -0.63,-0.54 a 0.35,0.35 0 0 0 -0.51,0.36 z m 10.79,0.05 q -1.36,-0.31 -1.93,0.59 a 0.32,0.32 0 0 1 -0.56,-0.05 q -0.34,-0.82 -0.8,-0.86 -0.49,-0.03 -0.53,0.51 -0.04,0.5 0.48,0.71 a 0.98,0.97 -83.1 0 1 0.59,0.76 q 0.16,1.18 0.17,1.19 a 0.39,0.39 0 0 0 0.69,-0.09 q 0.09,-0.26 0.25,-1.22 0.1,-0.59 0.52,-0.78 0.42,-0.19 1.13,-0.01 a 0.12,0.12 0 0 0 0.15,-0.09 l 0.07,-0.27 a 0.31,0.31 0 0 0 -0.23,-0.39 z m 1.33,2.9 0.72,-2.74 a 0.35,0.35 0 0 0 -0.6,-0.33 q -1.88,2.02 -0.65,3.22 a 0.32,0.32 0 0 0 0.53,-0.15 z m 2.87,-2.93 a 0.28,0.28 0 0 0 -0.45,-0.28 q -1.9,1.73 -1.47,3.17 a 0.6,0.6 0 0 0 1.16,-0.02 z m -9.43,1.66 q 0.62,1.5 0.63,1.52 a 0.31,0.31 0 0 0 0.57,-0.1 q 0.34,-1.43 0.12,-1.97 -0.23,-0.54 -1.48,-1.3 a 0.31,0.31 0 0 0 -0.47,0.34 q 0,0.02 0.63,1.51 z m 6.69,3.84 q -0.92,-1.24 -3.13,-0.98 a 0.43,0.43 0 0 0 -0.28,0.7 q 0.05,0.06 0.69,0.3 a 0.39,0.38 -72.4 0 1 0.23,0.46 l -0.58,2.19 a 0.57,0.56 -37.7 0 1 -1.11,-0.14 v -2.81 a 0.59,0.59 0 0 0 -0.57,-0.59 q -3.23,-0.1 -5.09,0.86 a 0.93,0.92 -43.2 0 1 -0.9,-0.02 q -0.65,-0.37 -1.38,-1.54 a 0.17,0.16 -30.6 0 0 -0.22,-0.05 l -0.26,0.15 a 0.13,0.12 -28.9 0 0 -0.05,0.16 c 2,4.18 4.55,6.49 9.35,5.78 q 3.89,-0.57 5.87,-5.22 a 0.21,0.21 0 0 0 -0.35,-0.23 l -1.81,1.81 a 0.56,0.49 79.6 0 0 -0.13,0.22 q -0.3,0.91 -1.8,1.8 a 0.28,0.28 0 0 1 -0.41,-0.33 q 0.54,-1.78 1.68,-1.92 a 0.38,0.37 67.9 0 0 0.25,-0.6 z"
       id="path136" />
    <path
       fill="#75d0ed"
       d="m 278.49,83.27 -11.07,21.37 -3.08,4.3 -2.72,5.18 a 2.03,1.99 -31.1 0 0 -0.23,0.89 l -0.02,1.31 q 0.02,-0.13 -0.1,-0.32 l -0.41,-2.14 a 5.97,5.81 26.6 0 0 -0.54,-1.55 q -2.18,-4.13 -3.07,-6.31 -0.85,-2.05 -3.35,-9.41 z"
       id="path137" />
    <path
       fill="#58e2eb"
       d="m 329.12,93.97 q -0.45,-0.6 -1.12,-0.48 -6.41,1.11 -12.81,2.27 c -4.28,0.78 -11.47,2.78 -17.48,3.29 q -0.59,-1.19 -0.28,-1.8 3.28,-6.43 5.89,-13.58 6.46,1.1 12.96,3.93 5.63,2.46 11.57,3.49 a 2.64,2.63 89.8 0 1 2.13,2.12 q 0.07,0.38 -0.86,0.76 z"
       id="path138" />
    <path
       fill="#2a7d89"
       d="m 329.12,93.97 q -2.59,2.23 -4.12,3.28 -7.41,5.1 -14.63,10.45 -5.98,4.44 -11.62,9.83 -5.28,5.04 -10.94,10.62 0.69,-7.92 5.06,-16.51 1.41,-2.78 -0.23,-6.48 c 1.71,-2.14 2.45,-4.54 5.07,-6.11 6.01,-0.51 13.2,-2.51 17.48,-3.29 q 6.4,-1.16 12.81,-2.27 0.67,-0.12 1.12,0.48 z"
       id="path139" />
    <path
       fill="#58e2eb"
       d="m 253.9,96.59 q 2.5,7.36 3.35,9.41 0.89,2.18 3.07,6.31 a 5.97,5.81 26.6 0 1 0.54,1.55 l 0.41,2.14 q -0.79,0.16 -1.13,0.63 -3.74,5.31 -8.19,9.35 a 3.16,3.12 83.3 0 0 -0.67,0.86 q -1.94,3.54 -5.26,6.4 c -1.07,0.92 -1.94,2.36 -2.11,3.58 a 0.96,0.95 -0.5 0 0 1.1,1.08 l 23.73,-3.92 a 0.32,0.32 0 0 1 0.36,0.39 q -2.03,8.34 -5.86,16.36 -0.91,1.9 -2.02,9.8 -0.38,1.6 -1.57,3 l -0.55,-0.08 a 0.97,0.95 77.1 0 1 -0.67,-0.43 L 242.3,138.66 q 2.17,-9.24 5.28,-20.85 2.96,-11.03 6.32,-21.22 z"
       id="path140" />
    <path
       fill="#4a96dd"
       d="m 424.69,97.34 9.13,40.53 q -2.73,-3.6 -5.3,-6.66 -2.94,-3.49 -5.24,-6.67 -5.22,-7.17 -10.28,-12.65 -0.37,-0.41 -0.92,0.16 0.04,-0.61 -0.07,-0.8 a 0.5,0.5 0 0 0 -0.82,-0.06 c -1.15,1.44 -2.4,3.31 -4.24,4.77 q -3.54,2.81 -6.29,6.06 -3.57,4.22 -6.11,6.2 -0.07,0.06 -10.48,9.84 -0.68,0.65 -1.16,0.25 c 1.22,-2.27 2.69,-4.53 3.77,-6.72 q 6.47,-13.14 12.6,-26.5 3.51,1.39 11.06,5.63 1.29,0.73 2.16,-0.7 z"
       id="path141" />
    <path
       fill="#1a597a"
       d="m 264.34,108.94 3.08,-4.3 q 5.39,-2.02 8.81,-0.41 2.94,1.37 3.7,4.54 a 0.27,0.26 75.2 0 1 -0.18,0.32 l -0.25,0.07 a 0.03,0.02 58.3 0 1 -0.02,-0.01 l -1.21,-2.1 a 0.39,0.39 0 0 0 -0.71,0.1 c -0.56,2.24 -5.19,1.5 -8.36,1.4 q -0.59,-0.02 -0.81,-0.2 -0.33,-0.29 -0.5,-0.67 a 0.73,0.73 0 0 1 0.29,-0.93 l 0.69,-0.39 a 0.55,0.54 61.9 0 1 0.77,0.24 q 0.45,0.95 1.91,0.86 a 0.74,0.74 0 0 0 0.69,-0.74 v -1.5 a 0.53,0.53 0 0 0 -0.72,-0.5 q -0.42,0.17 -1.12,0.88 a 0.56,0.55 43.9 0 1 -0.78,0.01 q -0.89,-0.86 -1.83,-0.28 a 1.35,1.34 -3.4 0 0 -0.51,0.57 q -0.99,2.13 -2.94,3.04 z m 9.97,-1.38 q 0.39,-0.14 0.67,-0.76 a 0.85,0.85 0 0 0 -0.13,-0.91 q -0.98,-1.11 -1.5,-0.91 -0.52,0.19 -0.53,1.67 a 0.85,0.85 0 0 0 0.48,0.77 q 0.62,0.29 1.01,0.14 z m 0.6808,-2.0532 a 1.3,0.76 -161 0 0 0.9818,1.1418 1.3,0.76 -161 0 0 1.4766,-0.2954 1.3,0.76 -161 0 0 -0.9818,-1.1418 1.3,0.76 -161 0 0 -1.4766,0.2954 z"
       id="path142" />
    <path
       fill="#95efef"
       d="m 273.35,104.98 q 0.52,-0.2 1.5,0.91 a 0.85,0.85 0 0 1 0.13,0.91 q -0.28,0.62 -0.67,0.76 -0.39,0.15 -1.01,-0.14 a 0.85,0.85 0 0 1 -0.48,-0.77 q 0.01,-1.48 0.53,-1.67 z"
       id="path143" />
    <ellipse
       fill="#95efef"
       cx="0"
       cy="0"
       transform="rotate(-161,146.9733,29.853312)"
       rx="1.3"
       ry="0.75999999"
       id="ellipse143" />
    <path
       fill="#3d9ca9"
       d="m 292.64,105.16 q 1.64,3.7 0.23,6.48 -4.37,8.59 -5.06,16.51 l -12.06,18.67 -6.54,5.69 a 2.38,2.25 88.4 0 0 -0.34,0.38 q -3.12,4.34 -7.65,7.64 1.11,-7.9 2.02,-9.8 3.83,-8.02 5.86,-16.36 a 0.32,0.32 0 0 0 -0.36,-0.39 l -23.73,3.92 a 0.96,0.95 -0.5 0 1 -1.1,-1.08 c 0.17,-1.22 1.04,-2.66 2.11,-3.58 q 3.32,-2.86 5.26,-6.4 a 3.16,3.12 83.3 0 1 0.67,-0.86 q 4.45,-4.04 8.19,-9.35 0.34,-0.47 1.13,-0.63 0.12,0.19 0.1,0.32 l 7.46,16.79 a 0.74,0.74 0 0 0 1.25,0.16 z"
       id="path144" />
    <path
       fill="#2a7d89"
       d="m 265.48,110 q 0.49,0.27 0.63,0.54 a 0.59,0.59 0 0 0 0.9,0.18 q 0.42,-0.34 0.87,-0.51 a 0.48,0.47 -15.6 0 1 0.64,0.36 l 0.35,2.15 a 0.38,0.37 80.7 0 1 -0.3,0.43 l -2.16,0.35 a 0.91,0.91 0 0 1 -1.05,-0.75 l -0.39,-2.39 a 0.35,0.35 0 0 1 0.51,-0.36 z"
       id="path145" />
    <path
       fill="#2a7d89"
       d="m 275.76,110.41 a 0.31,0.31 0 0 1 0.23,0.39 l -0.07,0.27 a 0.12,0.12 0 0 1 -0.15,0.09 q -0.71,-0.18 -1.13,0.01 -0.42,0.19 -0.52,0.78 -0.16,0.96 -0.25,1.22 a 0.39,0.39 0 0 1 -0.69,0.09 q -0.01,-0.01 -0.17,-1.19 a 0.98,0.97 -83.1 0 0 -0.59,-0.76 q -0.52,-0.21 -0.48,-0.71 0.04,-0.54 0.53,-0.51 0.46,0.04 0.8,0.86 a 0.32,0.32 0 0 0 0.56,0.05 q 0.57,-0.9 1.93,-0.59 z"
       id="path146" />
    <path
       fill="#2a7d89"
       d="m 276.56,113.46 q -1.23,-1.2 0.65,-3.22 a 0.35,0.35 0 0 1 0.6,0.33 l -0.72,2.74 a 0.32,0.32 0 0 1 -0.53,0.15 z"
       id="path147" />
    <path
       fill="#2466a4"
       d="m 279.96,110.38 -0.76,2.87 a 0.6,0.6 0 0 1 -1.16,0.02 q -0.43,-1.44 1.47,-3.17 a 0.28,0.28 0 0 1 0.45,0.28 z"
       id="path148" />
    <path
       fill="#2a7d89"
       d="m 271.85,111.49 q 0.22,0.54 -0.12,1.97 a 0.31,0.31 0 0 1 -0.57,0.1 q -0.01,-0.02 -0.63,-1.52 -0.63,-1.49 -0.63,-1.51 a 0.31,0.31 0 0 1 0.47,-0.34 q 1.25,0.76 1.48,1.3 z"
       id="path149" />
    <path
       fill="#75d0ed"
       d="m 412.08,112.05 q -0.19,0.97 -0.55,1.26 -2.25,4.84 -4.67,9.42 -2.74,5.19 -4.48,9.49 -2.23,5.51 -4.68,10.95 a 5.19,5.08 77.1 0 1 -0.68,1.11 l -4.2,5.14 -0.8,0.78 q -2.71,2.46 -4.6,5.5 a 5.44,5.37 85.2 0 1 -0.9,1.08 c -2.86,2.61 -4.25,5.62 -6.78,7.9 q -1.67,1.49 -4.45,5.68 a 0.77,0.77 0 0 1 -0.64,0.34 h -0.43 a 0.45,0.45 0 0 1 -0.39,-0.67 q 1.13,-1.93 1.54,-3.67 0.31,-1.27 3.82,-15.64 a 4.17,4.09 65 0 1 0.28,-0.79 q 2.26,-4.95 2.76,-10.41 l 0.68,-1.21 q 0.48,0.4 1.16,-0.25 10.41,-9.78 10.48,-9.84 2.54,-1.98 6.11,-6.2 2.75,-3.25 6.29,-6.06 c 1.84,-1.46 3.09,-3.33 4.24,-4.77 a 0.5,0.5 0 0 1 0.82,0.06 q 0.11,0.19 0.07,0.8 z"
       id="path150" />
    <path
       fill="#2b74d2"
       d="m 433.82,137.87 q 0.41,2.31 -0.61,2.69 -5.62,5.36 -9.07,12.2 c -1.16,2.3 -2.86,3.9 -4.04,5.82 q -3.19,5.21 -6.82,10.23 -0.73,-0.72 -1.32,-0.63 1.26,-9.65 -0.57,-18.6 0.47,-5.64 0.5,-11.55 0,-1.39 0.33,-11.55 0.21,-6.48 -0.69,-13.17 0.36,-0.29 0.55,-1.26 0.55,-0.57 0.92,-0.16 5.06,5.48 10.28,12.65 2.3,3.18 5.24,6.67 2.57,3.06 5.3,6.66 z"
       id="path151" />
    <path
       fill="#4a96dd"
       d="m 411.53,113.31 q 0.9,6.69 0.69,13.17 -0.33,10.16 -0.33,11.55 -0.03,5.91 -0.5,11.55 l -18.57,-0.16 4.2,-5.14 a 5.19,5.08 77.1 0 0 0.68,-1.11 q 2.45,-5.44 4.68,-10.95 1.74,-4.3 4.48,-9.49 2.42,-4.58 4.67,-9.42 z"
       id="path152" />
    <path
       fill="#2a7d89"
       d="m 276.97,116.48 q -1.14,0.14 -1.68,1.92 a 0.28,0.28 0 0 0 0.41,0.33 q 1.5,-0.89 1.8,-1.8 a 0.56,0.49 79.6 0 1 0.13,-0.22 l 1.81,-1.81 a 0.21,0.21 0 0 1 0.35,0.23 q -1.98,4.65 -5.87,5.22 c -4.8,0.71 -7.35,-1.6 -9.35,-5.78 a 0.13,0.12 -28.9 0 1 0.05,-0.16 l 0.26,-0.15 a 0.17,0.16 -30.6 0 1 0.22,0.05 q 0.73,1.17 1.38,1.54 a 0.93,0.92 -43.2 0 0 0.9,0.02 q 1.86,-0.96 5.09,-0.86 a 0.59,0.59 0 0 1 0.57,0.59 v 2.81 a 0.57,0.56 -37.7 0 0 1.11,0.14 l 0.58,-2.19 a 0.39,0.38 -72.4 0 0 -0.23,-0.46 q -0.64,-0.24 -0.69,-0.3 a 0.43,0.43 0 0 1 0.28,-0.7 q 2.21,-0.26 3.13,0.98 a 0.38,0.37 67.9 0 1 -0.25,0.6 z m -5.15,2.12 q 0.54,-0.23 -0.14,-2.47 a 0.47,0.42 14.1 0 0 -0.15,-0.21 q -0.36,-0.29 -0.85,-0.09 -0.49,0.21 -0.54,0.67 a 0.47,0.42 -58.9 0 0 0.05,0.25 q 1.08,2.07 1.63,1.85 z m -4.504,-2.1621 a 1.66,0.52 -137 0 0 0.8594,1.5124 1.66,0.52 -137 0 0 1.5686,0.7518 1.66,0.52 -137 0 0 -0.8594,-1.5124 1.66,0.52 -137 0 0 -1.5686,-0.7518 z"
       id="path153" />
    <path
       fill="#95efef"
       d="m 271.82,118.6 q -0.55,0.22 -1.63,-1.85 a 0.47,0.42 -58.9 0 1 -0.05,-0.25 q 0.05,-0.46 0.54,-0.67 0.49,-0.2 0.85,0.09 a 0.47,0.42 14.1 0 1 0.15,0.21 q 0.68,2.24 0.14,2.47 z"
       id="path154" />
    <ellipse
       fill="#95efef"
       cx="0"
       cy="0"
       transform="rotate(-137,157.42103,5.89661)"
       rx="1.66"
       ry="0.51999998"
       id="ellipse154" />
    <path
       fill="#58e2eb"
       d="m 299.45,129.71 q -0.88,0.36 -0.84,1.04 0.74,12.29 3.27,26.7 c 0.38,2.13 0.28,4.15 0.17,6.26 l -19.67,-15.4 q 4.64,-7.17 9.93,-14.03 c 1.94,-2.51 3.1,-4.69 4.34,-7.26 a 0.75,0.74 -56.4 0 1 1.17,-0.24 q 1.26,1.12 1.63,2.93 z"
       id="path155" />
    <path
       fill="#95efef"
       d="m 299.45,129.71 c 2.75,4.23 5.44,9.7 7.4,13.08 q 9.52,16.34 20.08,32.05 1.28,1.89 2.81,3.68 l -0.41,0.09 a 1.11,1.1 -33.7 0 1 -0.88,-0.17 c -1.53,-1.03 -3.86,-2.72 -6.07,-3.62 q -3.01,-1.24 -5.95,-3.08 c -3.09,-1.94 -7.35,-3.35 -10.86,-5.55 l -2.86,-1.41 -0.66,-1.07 c 0.11,-2.11 0.21,-4.13 -0.17,-6.26 q -2.53,-14.41 -3.27,-26.7 -0.04,-0.68 0.84,-1.04 z"
       id="path156" />
    <path
       fill="#4a96dd"
       d="m 382.23,139.52 q -0.5,5.46 -2.76,10.41 a 4.17,4.09 65 0 0 -0.28,0.79 q -3.51,14.37 -3.82,15.64 -0.41,1.74 -1.54,3.67 a 0.45,0.45 0 0 0 0.39,0.67 h 0.43 a 0.77,0.77 0 0 0 0.64,-0.34 q 2.78,-4.19 4.45,-5.68 c 2.53,-2.28 3.92,-5.29 6.78,-7.9 a 5.44,5.37 85.2 0 0 0.9,-1.08 q 1.89,-3.04 4.6,-5.5 l 0.32,16.4 a 2.25,2.24 -1.5 0 0 2.33,2.2 l 17.29,-0.62 q 0.59,-0.09 1.32,0.63 l -2.21,3.42 q -0.56,0.14 -1.05,0.46 l -34.55,-0.57 a 1.17,1.14 -59.8 0 0 -0.65,0.18 l -0.37,0.22 q -1.12,-0.28 -2.76,-0.08 l -33.26,2.7 q 6.86,-5.18 13.66,-9.85 9.43,-6.47 13.49,-10.04 7.59,-6.68 14.96,-13.56 a 0.83,0.78 88.1 0 0 0.14,-0.16 z"
       id="path157" />
    <path
       fill="#3d9ca9"
       d="m 259.65,163.53 -1.01,0.63 a 1.54,1.53 85.6 0 0 -0.61,0.72 q -2.55,6.07 -7.69,10.56 l -8.04,-36.78 16.13,24.36 a 0.97,0.95 77.1 0 0 0.67,0.43 z"
       id="path158" />
    <path
       fill="#214a9e"
       d="m 433.21,140.56 -10.45,42.22 -11.69,-10.55 2.21,-3.42 q 3.63,-5.02 6.82,-10.23 c 1.18,-1.92 2.88,-3.52 4.04,-5.82 q 3.45,-6.84 9.07,-12.2 z"
       id="path159" />
    <path
       fill="#2a7d89"
       d="m 275.75,146.82 -5.76,33.24 -6.71,-10.07 a 3.6,2.58 80.2 0 1 -0.24,-0.42 l -1.56,-3.16 a 0.44,0.43 -65.1 0 0 -0.81,0.3 q 1.69,6.98 4.38,12.88 1.93,4.21 3.75,9.63 0.04,0.11 2.36,5.83 1.57,3.86 1.69,8.08 -9.06,-10.31 -21.12,-24.86 -1.3,-1.57 -1.39,-2.83 5.14,-4.49 7.69,-10.56 a 1.54,1.53 85.6 0 1 0.61,-0.72 l 1.01,-0.63 q 1.19,-1.4 1.57,-3 4.53,-3.3 7.65,-7.64 a 2.38,2.25 88.4 0 1 0.34,-0.38 z"
       id="path160" />
    <path
       fill="#32cae1"
       d="m 302.05,163.71 0.66,1.07 q 0.22,0.92 -0.12,1.73 -0.22,-1.35 -1.05,-0.83 -5.54,3.44 -11.64,6.33 a 1.07,1.07 0 0 1 -1.49,-0.7 l -5.86,-22.73 q -0.09,-0.14 -0.17,-0.27 z"
       id="path161" />
    <path
       fill="#27a5d1"
       d="m 282.55,148.58 5.86,22.73 a 1.07,1.07 0 0 0 1.49,0.7 q 6.1,-2.89 11.64,-6.33 0.83,-0.52 1.05,0.83 l -2,35.46 q -0.34,-0.09 -0.61,-0.45 c -1.26,-5.68 -4.45,-11.83 -5.83,-15.86 q -2.09,-6.13 -4.78,-12.11 a 1.19,1.18 -25.1 0 0 -1.61,-0.58 l -11.03,5.52 q 2.06,-15.34 5.82,-29.91 z"
       id="path162" />
    <path
       fill="#1774ac"
       d="m 392.82,149.42 18.57,0.16 q 1.83,8.95 0.57,18.6 l -17.29,0.62 a 2.25,2.24 -1.5 0 1 -2.33,-2.2 l -0.32,-16.4 z m 18.0363,2.1831 a 0.6,0.6 0 0 0 -0.6073,-0.5926 l -16.2988,0.1991 a 0.6,0.6 0 0 0 -0.5926,0.6073 l 0.006,0.5 a 0.6,0.6 0 0 0 0.6073,0.5926 l 16.2988,-0.1991 a 0.6,0.6 0 0 0 0.5926,-0.6073 z m 0.142,3.5138 a 1.22,1.22 0 0 0 -1.2007,-1.239 l -14.8981,-0.2341 a 1.22,1.22 0 0 0 -1.2391,1.2007 l -0.1787,11.3786 a 1.22,1.22 0 0 0 1.2007,1.239 l 14.8981,0.2341 a 1.22,1.22 0 0 0 1.2391,-1.2007 z"
       id="path163" />
    <rect
       fill="#4a96dd"
       x="-8.75"
       y="-0.85000002"
       transform="rotate(-0.7,12638.996,-32836.762)"
       width="17.5"
       height="1.7"
       rx="0.60000002"
       id="rect163" />
    <path
       fill="#4a96dd"
       d="m 410.8196,166.4955 a 1.22,1.22 0 0 1 -1.2391,1.2007 l -14.8981,-0.2341 a 1.22,1.22 0 0 1 -1.2007,-1.239 l 0.1787,-11.3786 a 1.22,1.22 0 0 1 1.2391,-1.2007 l 14.8981,0.2341 a 1.22,1.22 0 0 1 1.2007,1.239 z M 400.09,164.43 l 1.18,0.45 a 0.21,0.21 0 0 0 0.27,-0.12 l 0.06,-0.16 a 8.42,0.78 -69.2 0 0 2.26,-8.15 l -0.11,-0.04 a 8.42,0.78 -69.2 0 0 -3.72,7.59 l -0.06,0.16 a 0.21,0.21 0 0 0 0.12,0.27 z m 5.03,-6.74 q 0.49,1.58 1.84,2.23 a 0.73,0.72 -54.8 0 1 0.2,1.17 l -1.93,1.93 a 0.6,0.6 0 0 0 0.54,1.01 q 2.25,-0.43 3.24,-3.01 a 1.04,1.02 -51.8 0 0 -0.1,-0.92 q -1.15,-1.8 -3.35,-2.8 a 0.32,0.32 0 0 0 -0.44,0.39 z m -7.13,-0.16 -2.61,2.62 a 0.78,0.77 47.8 0 0 -0.05,1.05 q 1.74,2.08 3.38,3 a 0.51,0.51 0 0 0 0.61,-0.8 l -2.09,-2.09 a 1.05,1.05 0 0 1 0,-1.48 l 1.7,-1.7 a 0.2,0.2 0 0 0 0,-0.28 l -0.33,-0.32 a 0.44,0.43 -44.5 0 0 -0.61,0 z"
       id="path164" />
    <path
       fill="#1774ac"
       d="m 400.09,164.43 a 0.21,0.21 0 0 1 -0.12,-0.27 l 0.06,-0.16 a 8.42,0.78 -69.2 0 1 3.72,-7.59 l 0.11,0.04 a 8.42,0.78 -69.2 0 1 -2.26,8.15 l -0.06,0.16 a 0.21,0.21 0 0 1 -0.27,0.12 z"
       id="path165" />
    <path
       fill="#1774ac"
       d="m 405.56,157.3 q 2.2,1 3.35,2.8 a 1.04,1.02 -51.8 0 1 0.1,0.92 q -0.99,2.58 -3.24,3.01 a 0.6,0.6 0 0 1 -0.54,-1.01 l 1.93,-1.93 a 0.73,0.72 -54.8 0 0 -0.2,-1.17 q -1.35,-0.65 -1.84,-2.23 a 0.32,0.32 0 0 1 0.44,-0.39 z"
       id="path166" />
    <path
       fill="#1774ac"
       d="m 397.99,157.53 a 0.44,0.43 -44.5 0 1 0.61,0 l 0.33,0.32 a 0.2,0.2 0 0 1 0,0.28 l -1.7,1.7 a 1.05,1.05 0 0 0 0,1.48 l 2.09,2.09 a 0.51,0.51 0 0 1 -0.61,0.8 q -1.64,-0.92 -3.38,-3 a 0.78,0.77 47.8 0 1 0.05,-1.05 z"
       id="path167" />
    <path
       fill="#75d0ed"
       d="m 305.57,166.19 q -0.3,-0.05 -0.51,0.11 a 0.35,0.35 0 0 0 0.01,0.56 q 3.15,2.31 4.97,5.42 a 7.25,7 6.8 0 0 1.33,1.63 c 4.45,4.08 8.23,9.16 11.93,13.14 3.62,3.88 7.19,9.35 11.17,13.79 l 1.24,1.62 -0.25,0.8 -11.11,0.31 a 0.67,0.67 0 0 1 -0.68,-0.67 v -9.46 a 0.11,0.11 0 0 0 -0.11,-0.11 h -0.29 a 0.28,0.28 0 0 0 -0.28,0.28 v 8.74 a 0.96,0.95 0 0 1 -0.96,0.95 h -8.75 a 0.84,0.82 72.2 0 1 -0.68,-0.36 q -0.62,-0.89 -0.46,-2.52 l -0.01,-5.93 a 0.83,0.83 0 0 1 0.83,-0.83 h 8.9 a 0.09,0.09 0 0 0 0.09,-0.09 v -0.27 a 0.06,0.06 0 0 0 -0.06,-0.06 l -9.46,-0.18 a 0.48,0.47 -81.9 0 1 -0.45,-0.6 l 0.2,-0.74 a 0.93,0.93 0 0 1 0.98,-0.69 q 5.27,0.51 7.34,-0.15 1.59,-0.5 2.44,0.95 a 0.18,0.18 0 0 0 0.34,-0.11 q -0.12,-1.12 -1.39,-1.27 -1.94,-0.23 -3.87,0.12 a 3.35,3.33 45.2 0 1 -1.28,-0.01 q -2.37,-0.49 -4.48,0.26 a 1.24,1.23 -9.7 0 0 -0.83,1.16 l -0.07,9.02 q -0.05,1.34 -0.64,2.03 a 1.17,1.16 -70.5 0 1 -0.83,0.4 l -8.41,0.37 q -1.1,-0.68 -0.89,-1.83 l 2,-35.46 q 0.34,-0.81 0.12,-1.73 z"
       id="path168" />
    <path
       fill="#3d9ca9"
       d="m 269.99,180.06 5.13,24.46 a 0.27,0.27 0 0 1 -0.39,0.3 q -1.29,-0.67 -1.88,-1.69 -0.12,-4.22 -1.69,-8.08 -2.32,-5.72 -2.36,-5.83 -1.82,-5.42 -3.75,-9.63 -2.69,-5.9 -4.38,-12.88 a 0.44,0.43 -65.1 0 1 0.81,-0.3 l 1.56,3.16 a 3.6,2.58 80.2 0 0 0.24,0.42 z"
       id="path169" />
    <path
       fill="#32cae1"
       d="m 305.57,166.19 c 3.51,2.2 7.77,3.61 10.86,5.55 q 2.94,1.84 5.95,3.08 c 2.21,0.9 4.54,2.59 6.07,3.62 a 1.11,1.1 -33.7 0 0 0.88,0.17 l 0.41,-0.09 q 0.33,0.24 0.49,0.49 2.25,7.88 4.32,15.75 0.77,2.94 -0.08,6.08 c -3.98,-4.44 -7.55,-9.91 -11.17,-13.79 -3.7,-3.98 -7.48,-9.06 -11.93,-13.14 a 7.25,7 6.8 0 1 -1.33,-1.63 q -1.82,-3.11 -4.97,-5.42 a 0.35,0.35 0 0 1 -0.01,-0.56 q 0.21,-0.16 0.51,-0.11 z"
       id="path170" />
    <path
       fill="#2b74d2"
       d="m 410.02,172.69 -0.61,0.34 -2.42,0.01 a 1.41,1.38 -65.2 0 0 -0.87,0.33 q -1.26,1.06 -2.77,1.71 -7.98,3.4 -20.65,8.63 a 1.84,1.83 -26.1 0 1 -2.29,-0.78 l -5.96,-10.41 0.37,-0.22 a 1.17,1.14 -59.8 0 1 0.65,-0.18 z"
       id="path171" />
    <path
       fill="#214a9e"
       d="m 374.45,172.52 5.96,10.41 a 1.84,1.83 -26.1 0 0 2.29,0.78 q 12.67,-5.23 20.65,-8.63 1.51,-0.65 2.77,-1.71 a 1.41,1.38 -65.2 0 1 0.87,-0.33 l 2.42,-0.01 -1.72,3.58 a 5.81,5.62 78.6 0 1 -0.8,1.25 q -6.58,7.94 -13.24,15.8 -1.2,1.43 -0.87,3.42 -2.76,2.38 -4.67,1.07 -1.9,-6.9 -6.36,-12.34 a 1.36,1.34 -22.6 0 0 -1.19,-0.48 q -10.59,1.23 -20.03,6.3 l -3.33,-0.64 12.23,-13.75 a 7.31,7.17 -15.1 0 0 1.42,-2.41 l 0.84,-2.39 q 1.64,-0.2 2.76,0.08 z"
       id="path172" />
    <path
       fill="#1a597a"
       d="m 411.07,172.23 11.69,10.55 -29.98,14.3 q -0.33,-1.99 0.87,-3.42 6.66,-7.86 13.24,-15.8 a 5.81,5.62 78.6 0 0 0.8,-1.25 l 1.72,-3.58 0.61,-0.34 q 0.49,-0.32 1.05,-0.46 z"
       id="path173" />
    <path
       fill="#2b74d2"
       d="m 371.69,172.44 -0.84,2.39 a 7.31,7.17 -15.1 0 1 -1.42,2.41 l -12.23,13.75 q -9.38,-6.82 -18.81,-14.07 -0.62,-0.47 -0.63,-0.91 -0.01,-0.54 0.67,-0.87 z"
       id="path174" />
    <path
       fill="#2e7dc6"
       d="m 299.98,201.52 -0.93,-1.3 a 1.55,1.52 81.3 0 0 -0.76,-0.57 q -2.31,-0.82 -2.96,-1.47 -9.03,-9.07 -18.57,-17.75 -0.43,-1.41 -0.03,-1.94 l 11.03,-5.52 a 1.19,1.18 -25.1 0 1 1.61,0.58 q 2.69,5.98 4.78,12.11 c 1.38,4.03 4.57,10.18 5.83,15.86 z"
       id="path175" />
    <path
       fill="#27a5d1"
       d="m 384.7,204.78 -15.52,9.82 a 1.47,1.44 30.7 0 1 -0.9,0.22 q -2.21,-0.2 -2.9,-1.24 -4.4,-6.68 -8.31,-12.15 -1.41,-1.96 -2.44,-2.79 a 2.12,2.04 69.2 0 0 -0.87,-0.41 q -1.11,-0.23 -3.24,0.31 -8.4,2.12 -13.54,3.67 -0.62,0.19 -1.27,0.25 l -1.24,-1.62 q 0.85,-3.14 0.08,-6.08 -2.07,-7.87 -4.32,-15.75 16.45,12.61 21.84,16.43 2.52,1.79 6.99,2.84 12.03,2.83 25.64,6.5 z"
       id="path176" />
    <path
       fill="#1774ac"
       d="m 299.98,201.52 q 0.27,0.36 0.61,0.45 -0.21,1.15 0.89,1.83 0.06,0.51 0.56,0.97 -1.47,-0.44 -2.58,0.44 -5.85,4.62 -12.02,9.41 c -3.09,-8.82 -5.78,-17.73 -8.73,-26.6 q -0.55,-1.65 -1.95,-7.59 9.54,8.68 18.57,17.75 0.65,0.65 2.96,1.47 a 1.55,1.52 81.3 0 1 0.76,0.57 z"
       id="path177" />
    <path
       fill="#1a597a"
       d="m 388.11,198.15 q -11.41,-2.69 -22.74,-4.98 -2.18,-0.45 -4.84,-1.54 9.44,-5.07 20.03,-6.3 a 1.36,1.34 -22.6 0 1 1.19,0.48 q 4.46,5.44 6.36,12.34 z"
       id="path178" />
    <path
       fill="#1a597a"
       d="m 312.14,200.42 -0.28,1.74 a 0.23,0.23 0 0 1 -0.44,0.04 q -0.15,-0.43 -0.06,-1.2 l 0.07,-9.02 a 1.24,1.23 -9.7 0 1 0.83,-1.16 q 2.11,-0.75 4.48,-0.26 a 3.35,3.33 45.2 0 0 1.28,0.01 q 1.93,-0.35 3.87,-0.12 1.27,0.15 1.39,1.27 a 0.18,0.18 0 0 1 -0.34,0.11 q -0.85,-1.45 -2.44,-0.95 -2.07,0.66 -7.34,0.15 a 0.93,0.93 0 0 0 -0.98,0.69 l -0.2,0.74 a 0.48,0.47 -81.9 0 0 0.45,0.6 l 9.46,0.18 a 0.06,0.06 0 0 1 0.06,0.06 v 0.27 a 0.09,0.09 0 0 1 -0.09,0.09 h -8.9 a 0.83,0.83 0 0 0 -0.83,0.83 z"
       id="path179" />
    <path
       fill="#27a5d1"
       d="m 335.46,203.26 1.26,0.51 q -0.61,0.15 -0.8,0.61 -4.02,10.21 -8.18,20.36 -0.51,1.24 -1.21,3.6 -0.57,1.89 -1.34,3.57 l -1.15,-0.35 -22,-26.79 q -0.5,-0.46 -0.56,-0.97 l 8.41,-0.37 a 1.17,1.16 -70.5 0 0 0.83,-0.4 q 0.59,-0.69 0.64,-2.03 -0.09,0.77 0.06,1.2 a 0.23,0.23 0 0 0 0.44,-0.04 l 0.28,-1.74 q -0.16,1.63 0.46,2.52 a 0.84,0.82 72.2 0 0 0.68,0.36 h 8.75 a 0.96,0.95 0 0 0 0.96,-0.95 v -8.74 a 0.28,0.28 0 0 1 0.28,-0.28 h 0.29 a 0.11,0.11 0 0 1 0.11,0.11 v 9.46 a 0.67,0.67 0 0 0 0.68,0.67 z"
       id="path180" />
    <path
       fill="#32cae1"
       d="m 384.7,204.78 q 9.02,-1.47 18.34,-4.31 3.08,-0.94 4.99,-1.18 5,-0.62 2.03,1.7 -3.92,0 -5.26,0.79 -3.55,2.1 -7.4,3.42 c -3.58,1.22 -6.17,2.96 -9.93,4.21 q -8.52,2.82 -17.65,6.35 l -2.89,0.14 c -3.36,-1.17 -6.71,-3.06 -9.79,-4.27 q -4.61,-1.83 -14.41,-5.89 -1.28,-0.53 -6.01,-1.97 l -1.26,-0.51 0.25,-0.8 q 0.65,-0.06 1.27,-0.25 5.14,-1.55 13.54,-3.67 2.13,-0.54 3.24,-0.31 a 2.12,2.04 69.2 0 1 0.87,0.41 q 1.03,0.83 2.44,2.79 3.91,5.47 8.31,12.15 0.69,1.04 2.9,1.24 a 1.47,1.44 30.7 0 0 0.9,-0.22 z"
       id="path181" />
    <path
       fill="#1774ac"
       d="m 410.06,200.99 q -8.86,7.49 -18.31,15.5 -3.02,2.57 -5.77,3.89 l -16.16,-4.62 q 9.13,-3.53 17.65,-6.35 c 3.76,-1.25 6.35,-2.99 9.93,-4.21 q 3.85,-1.32 7.4,-3.42 1.34,-0.79 5.26,-0.79 z"
       id="path182" />
    <path
       fill="#2e7dc6"
       d="m 336.72,203.77 q 4.73,1.44 6.01,1.97 9.8,4.06 14.41,5.89 c 3.08,1.21 6.43,3.1 9.79,4.27 -3.81,1.38 -8.06,3.63 -11.35,4.61 -4.78,1.43 -8.04,3.01 -14.17,5.15 q -7.04,2.46 -13.45,6.27 l -2.77,-0.02 q 0.77,-1.68 1.34,-3.57 0.7,-2.36 1.21,-3.6 4.16,-10.15 8.18,-20.36 0.19,-0.46 0.8,-0.61 z"
       id="path183" />
    <path
       fill="#1a597a"
       d="m 302.04,204.77 22,26.79 -36.6,-16.94 q 6.17,-4.79 12.02,-9.41 1.11,-0.88 2.58,-0.44 z"
       id="path184" />
    <path
       fill="#1a597a"
       d="m 369.82,215.76 16.16,4.62 -26.78,11.31 a 1.6,1.57 32.7 0 1 -0.63,0.13 l -30.61,0.11 q 6.41,-3.81 13.45,-6.27 c 6.13,-2.14 9.39,-3.72 14.17,-5.15 3.29,-0.98 7.54,-3.23 11.35,-4.61 z"
       id="path185" />
    <path
       style="fill:#58e2eb;fill-opacity:1"
       d="m 345.27,67.23 19.49023,8.349748 a 0.51416442,0.51416442 147.05931 0 0 0.71657,-0.464292 l 0.15084,-9.312185 a 2.1779928,2.1779928 71.612797 0 0 -0.45449,-1.367249 L 361.01,59.05 Z"
       id="path222"
       sodipodi:nodetypes="ccccc"
       inkscape:path-effect="#path-effect224"
       inkscape:original-d="M 345.27,67.23 365.46439,75.881417 365.64,65.04 361.01,59.05 Z" />
    <path
       style="fill:#58e2eb;fill-opacity:1"
       d="m 345.27,67.23 -5.09812,-6.413744 8.42668,-4.601412 7.5951,0.887019 L 361.01,59.05 Z"
       id="path223" />
    <path
       style="fill:#4aa7de;fill-opacity:1"
       d="m 361.01,59.05 3.55491,-0.95024 2.66105,2.55018 L 365.64,65.04 Z"
       id="path224" />
    <path
       style="fill:#6cbee9;fill-opacity:1"
       d="m 345.27,67.23 -1.35891,10.113735 2.11686,2.704875 20.42377,-0.0784 0.0784,-4.70413 -0.98287,-2.595425 a 0.0232958,0.0232958 174.84171 0 0 -0.0447,0.004 l -0.47133,2.561844 a 0.31309931,0.31309931 151.75325 0 1 -0.43068,0.231382 z"
       id="path225"
       inkscape:path-effect="#path-effect225"
       inkscape:original-d="m 345.27,67.23 -1.35891,10.113735 2.11686,2.704875 20.42377,-0.0784 0.0784,-4.70413 -1.01245,-2.673543 -0.55723,3.028751 z"
       sodipodi:nodetypes="cccccccc" />
    <path
       style="fill:#4a96dd;fill-opacity:1"
       d="m 392.02,150.2 1.6826,-1.86013 17.79339,-0.1109 0.27973,3.4537 0.18428,16.49733 -17.29,0.62 -3.54996,0.12173 1.08333,-9.32403 z"
       id="path226" />
    <path
       style="fill:#75d0ed;fill-opacity:1"
       d="m 309.89,203.43 14.46,0.14 -0.23545,-13.20954 -3.6849,-1.25444 -9.99628,0.70562 z"
       id="path227" />
    <path
       style="fill:#95efef;fill-opacity:1"
       d="m 264.34,108.94 3.43277,-4.981 8.35965,-1.40897 4.70413,5.37055 0.50962,7.3306 -4.23372,5.37055 -9.40826,0.39201 -4.31212,-6.03697 L 262.98,111.53 Z"
       id="path228" />
  </g>
  <text
     xml:space="preserve"
     id="text1"
     style="font-style:normal;font-variant:normal;font-weight:100;font-stretch:ultra-condensed;font-size:21.3333px;font-family:'.SF Georgian';-inkscape-font-specification:'.SF Georgian Thin Ultra-Condensed';text-align:center;writing-mode:lr-tb;direction:ltr;white-space:pre;shape-inside:url(#rect1);display:inline;fill:#1a597a;fill-opacity:0.458824"
     x="149.01924"
     y="0"
     transform="translate(26.167068,3.548077)" />
  <text
     xml:space="preserve"
     style="font-style:normal;font-variant:normal;font-weight:100;font-stretch:ultra-condensed;font-size:17.5879px;font-family:'.SF Georgian';-inkscape-font-specification:'.SF Georgian Thin Ultra-Condensed';text-align:center;writing-mode:lr-tb;direction:ltr;text-anchor:middle;fill:#ffffff;fill-opacity:1;stroke-width:1.31909"
     x="353.52313"
     y="303.01852"
     id="text2"><tspan
       sodipodi:role="line"
       id="tspan2"
       x="356.61478"
       y="303.01852"
       style="font-style:normal;font-variant:normal;font-weight:100;font-stretch:ultra-condensed;font-size:17.5879px;font-family:'.SF Georgian';-inkscape-font-specification:'.SF Georgian Thin Ultra-Condensed';fill:#ffffff;fill-opacity:1;stroke-width:1.31909">- IT Solutions &amp; Services - </tspan></text>
</svg>
